<mxfile host="app.diagrams.net" modified="2023-07-15T10:29:50.276Z" agent="Mozilla/5.0 (Windows NT 10.0; Win64; x64) AppleWebKit/537.36 (KHTML, like Gecko) Chrome/114.0.0.0 Safari/537.36" etag="XgkvqKc8nX4hHs9PST1A" version="21.6.2" type="github">
  <diagram id="prtHgNgQTEPvFCAcTncT" name="Page-1">
    <mxGraphModel dx="1434" dy="745" grid="1" gridSize="11" guides="1" tooltips="1" connect="1" arrows="1" fold="1" page="1" pageScale="1" pageWidth="827" pageHeight="1169" background="none" math="0" shadow="0">
      <root>
        <mxCell id="0" />
        <mxCell id="1" parent="0" />
        <mxCell id="dNxyNK7c78bLwvsdeMH5-19" value="FOODSHOP" style="swimlane;html=1;childLayout=stackLayout;resizeParent=1;resizeParentMax=0;horizontal=0;startSize=20;horizontalStack=0;" parent="1" vertex="1">
          <mxGeometry x="120" y="120" width="450" height="360" as="geometry" />
        </mxCell>
        <mxCell id="dNxyNK7c78bLwvsdeMH5-20" value="LAYER1" style="swimlane;html=1;startSize=20;horizontal=0;" parent="dNxyNK7c78bLwvsdeMH5-19" vertex="1">
          <mxGeometry x="20" width="430" height="120" as="geometry" />
        </mxCell>
        <mxCell id="3iT4GcVSfQZ8Hk2x6UCm-7" style="edgeStyle=orthogonalEdgeStyle;rounded=0;orthogonalLoop=1;jettySize=auto;html=1;exitX=1;exitY=0.5;exitDx=0;exitDy=0;" edge="1" parent="dNxyNK7c78bLwvsdeMH5-20" source="dNxyNK7c78bLwvsdeMH5-24" target="3iT4GcVSfQZ8Hk2x6UCm-5">
          <mxGeometry relative="1" as="geometry" />
        </mxCell>
        <mxCell id="dNxyNK7c78bLwvsdeMH5-24" value="" style="rounded=0;whiteSpace=wrap;html=1;fontFamily=Helvetica;fontSize=12;align=center;fillColor=#60a917;strokeColor=#2D7600;fontColor=#ffffff;" parent="dNxyNK7c78bLwvsdeMH5-20" vertex="1">
          <mxGeometry x="40" y="20" width="130" height="70" as="geometry" />
        </mxCell>
        <mxCell id="dNxyNK7c78bLwvsdeMH5-30" value="" style="rounded=0;whiteSpace=wrap;html=1;fontFamily=Helvetica;fontSize=12;align=center;fillColor=#ffe6cc;strokeColor=#d79b00;" parent="dNxyNK7c78bLwvsdeMH5-20" vertex="1">
          <mxGeometry x="274" y="20" width="130" height="70" as="geometry" />
        </mxCell>
        <mxCell id="3iT4GcVSfQZ8Hk2x6UCm-3" value="Food Ordering Client (Fron end)" style="text;html=1;strokeColor=none;fillColor=none;align=center;verticalAlign=middle;whiteSpace=wrap;rounded=0;" vertex="1" parent="dNxyNK7c78bLwvsdeMH5-20">
          <mxGeometry x="50" y="40" width="110" height="35" as="geometry" />
        </mxCell>
        <mxCell id="3iT4GcVSfQZ8Hk2x6UCm-5" value="Orders (Back end)" style="text;html=1;strokeColor=none;fillColor=none;align=center;verticalAlign=middle;whiteSpace=wrap;rounded=0;" vertex="1" parent="dNxyNK7c78bLwvsdeMH5-20">
          <mxGeometry x="274" y="38.5" width="120" height="33" as="geometry" />
        </mxCell>
        <mxCell id="dNxyNK7c78bLwvsdeMH5-21" value="BROKER" style="swimlane;html=1;startSize=20;horizontal=0;" parent="dNxyNK7c78bLwvsdeMH5-19" vertex="1">
          <mxGeometry x="20" y="120" width="430" height="120" as="geometry" />
        </mxCell>
        <mxCell id="3iT4GcVSfQZ8Hk2x6UCm-12" value="" style="rounded=1;whiteSpace=wrap;html=1;fillColor=#9ebd7f;fontColor=#ffffff;strokeColor=#2D7600;fillStyle=solid;" vertex="1" parent="dNxyNK7c78bLwvsdeMH5-21">
          <mxGeometry x="40" y="30" width="370" height="60" as="geometry" />
        </mxCell>
        <mxCell id="3iT4GcVSfQZ8Hk2x6UCm-10" value="&lt;font style=&quot;font-size: 14px;&quot;&gt;&lt;b&gt;Kafka Data Pipeline&lt;/b&gt;&lt;/font&gt;" style="text;html=1;strokeColor=none;fillColor=none;align=center;verticalAlign=middle;whiteSpace=wrap;rounded=0;" vertex="1" parent="dNxyNK7c78bLwvsdeMH5-21">
          <mxGeometry x="140" y="45" width="160" height="30" as="geometry" />
        </mxCell>
        <mxCell id="dNxyNK7c78bLwvsdeMH5-22" value="LAYER2" style="swimlane;html=1;startSize=20;horizontal=0;" parent="dNxyNK7c78bLwvsdeMH5-19" vertex="1">
          <mxGeometry x="20" y="240" width="430" height="120" as="geometry" />
        </mxCell>
        <mxCell id="3iT4GcVSfQZ8Hk2x6UCm-14" value="" style="rounded=0;whiteSpace=wrap;html=1;fillColor=#fff2cc;strokeColor=#d6b656;" vertex="1" parent="dNxyNK7c78bLwvsdeMH5-22">
          <mxGeometry x="40" y="10" width="110" height="60" as="geometry" />
        </mxCell>
        <mxCell id="3iT4GcVSfQZ8Hk2x6UCm-15" value="" style="rounded=0;whiteSpace=wrap;html=1;fillColor=#f8cecc;strokeColor=#b85450;" vertex="1" parent="dNxyNK7c78bLwvsdeMH5-22">
          <mxGeometry x="175" y="10" width="100" height="60" as="geometry" />
        </mxCell>
        <mxCell id="3iT4GcVSfQZ8Hk2x6UCm-13" value="" style="rounded=0;whiteSpace=wrap;html=1;fillColor=#dae8fc;strokeColor=#6c8ebf;" vertex="1" parent="dNxyNK7c78bLwvsdeMH5-22">
          <mxGeometry x="290" y="10" width="120" height="60" as="geometry" />
        </mxCell>
        <mxCell id="3iT4GcVSfQZ8Hk2x6UCm-16" value="Email &lt;br&gt;(Back end)" style="text;html=1;strokeColor=none;fillColor=none;align=center;verticalAlign=middle;whiteSpace=wrap;rounded=0;" vertex="1" parent="dNxyNK7c78bLwvsdeMH5-22">
          <mxGeometry x="50" y="25" width="90" height="30" as="geometry" />
        </mxCell>
        <mxCell id="3iT4GcVSfQZ8Hk2x6UCm-17" value="Analytics&lt;br&gt;&amp;nbsp;(Back end)" style="text;html=1;strokeColor=none;fillColor=none;align=center;verticalAlign=middle;whiteSpace=wrap;rounded=0;" vertex="1" parent="dNxyNK7c78bLwvsdeMH5-22">
          <mxGeometry x="180" y="25" width="90" height="30" as="geometry" />
        </mxCell>
        <mxCell id="3iT4GcVSfQZ8Hk2x6UCm-1" value="Transactions (Back end)" style="text;html=1;strokeColor=none;fillColor=none;align=center;verticalAlign=middle;whiteSpace=wrap;rounded=0;" vertex="1" parent="dNxyNK7c78bLwvsdeMH5-22">
          <mxGeometry x="300" y="25" width="90" height="30" as="geometry" />
        </mxCell>
        <mxCell id="3iT4GcVSfQZ8Hk2x6UCm-18" value="" style="edgeStyle=orthogonalEdgeStyle;rounded=0;orthogonalLoop=1;jettySize=auto;html=1;" edge="1" parent="dNxyNK7c78bLwvsdeMH5-19" source="3iT4GcVSfQZ8Hk2x6UCm-5" target="3iT4GcVSfQZ8Hk2x6UCm-10">
          <mxGeometry relative="1" as="geometry" />
        </mxCell>
        <mxCell id="3iT4GcVSfQZ8Hk2x6UCm-28" style="edgeStyle=orthogonalEdgeStyle;rounded=0;orthogonalLoop=1;jettySize=auto;html=1;entryX=0.5;entryY=0;entryDx=0;entryDy=0;" edge="1" parent="dNxyNK7c78bLwvsdeMH5-19" source="3iT4GcVSfQZ8Hk2x6UCm-12" target="3iT4GcVSfQZ8Hk2x6UCm-15">
          <mxGeometry relative="1" as="geometry" />
        </mxCell>
        <mxCell id="3iT4GcVSfQZ8Hk2x6UCm-33" style="edgeStyle=orthogonalEdgeStyle;rounded=0;orthogonalLoop=1;jettySize=auto;html=1;exitX=0.25;exitY=1;exitDx=0;exitDy=0;entryX=0.564;entryY=-0.033;entryDx=0;entryDy=0;entryPerimeter=0;" edge="1" parent="dNxyNK7c78bLwvsdeMH5-19" source="3iT4GcVSfQZ8Hk2x6UCm-12" target="3iT4GcVSfQZ8Hk2x6UCm-14">
          <mxGeometry relative="1" as="geometry" />
        </mxCell>
        <mxCell id="3iT4GcVSfQZ8Hk2x6UCm-34" style="edgeStyle=orthogonalEdgeStyle;rounded=0;orthogonalLoop=1;jettySize=auto;html=1;exitX=0.75;exitY=0;exitDx=0;exitDy=0;entryX=0.919;entryY=1.017;entryDx=0;entryDy=0;entryPerimeter=0;" edge="1" parent="dNxyNK7c78bLwvsdeMH5-19" source="3iT4GcVSfQZ8Hk2x6UCm-13" target="3iT4GcVSfQZ8Hk2x6UCm-12">
          <mxGeometry relative="1" as="geometry" />
        </mxCell>
        <mxCell id="3iT4GcVSfQZ8Hk2x6UCm-35" style="edgeStyle=orthogonalEdgeStyle;rounded=0;orthogonalLoop=1;jettySize=auto;html=1;exitX=0.75;exitY=1;exitDx=0;exitDy=0;entryX=0.308;entryY=-0.05;entryDx=0;entryDy=0;entryPerimeter=0;" edge="1" parent="dNxyNK7c78bLwvsdeMH5-19" source="3iT4GcVSfQZ8Hk2x6UCm-12" target="3iT4GcVSfQZ8Hk2x6UCm-13">
          <mxGeometry relative="1" as="geometry" />
        </mxCell>
      </root>
    </mxGraphModel>
  </diagram>
</mxfile>
